# xmcd CD database file
#
# Track frame offsets:
#	150
#	19002
#	29090
#
# Disc length: 655 seconds
#
# Revision: 0
# Processed by: cddbd v1.5.1PL0 Copyright (c) Steve Scherf et al.
# Submitted via: CDex 1.51
#
DISCID=1e028d03
DTITLE=熊木杏里 - 私をたどる物語
DYEAR=2005
DGENRE=JPop
TTITLE0=私をたどる物語（シングル・ヴァージョン）
TTITLE1=ヒトツ／フタツ
TTITLE2=あなたに逢いたい
EXTD=YEAR: 2005
EXTT0=
EXTT1=
EXTT2=
PLAYORDER=
